<?xml version="1.0" encoding="utf-8"?>
<!-- Generator: Adobe Illustrator 24.2.3, SVG Export Plug-In . SVG Version: 6.00 Build 0)  -->
<svg version="1.1" id="Layer_1" xmlns="http://www.w3.org/2000/svg" xmlns:xlink="http://www.w3.org/1999/xlink" x="0px" y="0px"
	 viewBox="0 0 1024 1024" style="enable-background:new 0 0 1024 1024;" xml:space="preserve">
<style type="text/css">
	.st0{fill:#FEFEFE;}
	.st1{fill:#016CAC;}
	.st2{fill:#30A8AC;}
</style>
<g>
	<path class="st0" d="M780.7,814.3c-0.8,0.7-1.7,1.4-2.7,2.2c2.1,0.9,2.8-0.1,3.5-1.3c0.3-0.3,0.7-0.7,1-1c1.2-1.1,2.5-2.2,3.6-3.4
		c93.4-102.5,125.6-222,92.2-356.2C831.1,264.6,645.1,144,452.1,175c-94.5,15.2-172.9,59.8-233.1,134
		c-74.9,92.1-100.4,197.7-78.7,314.2c13.4,71.8,46.6,134,96.7,187.2c1.1,1.2,2,3,4.2,3.1c0.1-2.2-1.4-3.2-2.3-4.5
		c-67-91.9-86.2-193.1-55.3-302.4C233.3,331,417.2,225.9,594.1,270.5C736.7,306.4,839,426,852.4,572.6
		c5.4,59.3-4.5,116.1-28.6,170.4c-11.2,25.2-25.7,48.5-42.3,70.4C781.2,813.7,780.9,814,780.7,814.3z M242.8,814.2
		c-0.4-0.4-0.9-1-1.4-0.3c-0.6,0.7,0.3,0.9,0.7,1.2c0.6,0.9,0.8,2,2.1,2.5C244.6,816.1,243.9,815.1,242.8,814.2z M616.3,656
		c-10.2,1.4-18.6,6.8-26.8,12.4c-4.7,3.2-9.2,6.6-14.4,9c-11.8,5.7-22.7,2.1-28.4-9.7c-11.5-23.7-9.1-47.2,2.3-70.1
		c10.5-21.2,23-41.3,35.6-61.3c12-19.1,21.9-39.2,29.6-60.4c0.8-2.3,1.6-4.6-1.3-6c-2.9-1.4-4.3,0.5-5.6,2.6c-1.6,2.5-3.2,5.1-5,7.5
		c-19.4,26-41.3,49.7-65.4,71.3c-8.5,7.6-20.5,6.6-28-2.2c-8.4-9.8-14.7-20.9-19.7-32.8c-11.3-26.9-16.4-55.4-23.8-83.4
		c-0.4-1.4-0.1-3.7-1.7-3.7c-2.1-0.1-2,2.3-2.2,3.9c-3.6,26.7-2.9,53.3,3.6,79.4c6.2,24.7,14.2,48.9,17.9,74.1
		c1.7,11.9,3.5,23.7,3.5,35.7c0,7.6-4.1,10.9-11.6,9.5c-3.3-0.6-6.4-1.9-9.3-3.6c-4.2-2.3-8.5-4.6-12.7-7
		c-19.2-11.2-38.8-21.3-60-28c-2.7-0.9-5.3-1.7-6.7,1.8c-1.4,3.6,1.5,4.6,3.9,5.7c6.3,3.1,12.7,5.9,18.8,9.3
		c28.9,15.7,50.6,38.2,64.4,68.1c14.3,31,21,63.7,20.6,97.8c-0.2,14.9-1.7,29.5-6.5,43.8c-1.8,5.4-4.9,8.1-10.6,8.8
		c-32.4,4.1-64,12-95.1,22.2c-1.5,0.5-3.1,0.7-4.5,2.3c6.8,1.9,12.5-0.8,18.4-2.3c55.2-13.9,111.3-17.8,168-14.7
		c17.3,0.9,34.5,2.7,51.6,5.7c11.6,2,23.2,4.6,34.6,7.6c6.5,1.7,7.8,0.9,9.1-5.8c0.5-2.4,0.7-4.9,1-7.4c1-7.5-1.3-10.7-9-11
		c-8.5-0.3-16.9-1.2-25.4-2.2c-16.4-1.9-32.9-2.4-49.4-2c-4.8,0.1-7.6-1.8-8.1-6.8c-0.2-1.7-0.5-3.3-0.6-4.9
		c-1.4-16.7-0.8-33.3,0.8-49.9c3.3-33.1,14.9-62.6,36.2-88.2C608.4,666.2,613.2,661.7,616.3,656c0.1-0.1,0.2-0.1,0.3-0.2
		c0.1,0,0-0.2,0-0.3C616.5,655.7,616.4,655.9,616.3,656z M559,494.5c-0.2-1.8-0.4-4.2-0.9-6.7c-2.4-12.4-11-20.8-23-21.3
		c-11-0.4-22.4,4.5-26,16.1c-3.1,10.1-3.2,20.4,1.1,30.2c6.2,14,23.5,18.2,35.5,8.7C554.3,514.9,558.4,505.9,559,494.5z
		 M462.5,573.5c-0.2-14-11.6-25.7-24.9-25.4c-11.5,0.3-20.5,8.7-20.4,19c0.2,13.8,12.7,25.9,26.7,25.7
		C454.5,592.8,462.6,584.4,462.5,573.5z M577.4,645c14.5,0,26.4-14.5,24-29.3c-2.1-13.4-11.7-19.3-24.6-15.1
		c-12.9,4.2-19.7,16.7-16.6,30.6C562.3,640.6,567.7,645,577.4,645z M337.1,561.9c-5.5-0.2-11,0.9-16.4,1.3c-2.4,0.2-4.9,0.9-5.8,3.2
		c-1,2.4,1.6,3.4,2.9,4.6c7.5,7.3,15.9,13.5,24.9,18.9c6.2,3.7,12.8,4.4,19.7,2.8c6.4-1.5,10-8.1,7.3-13.9
		c-3.9-8.7-10.5-14.5-20.2-15.8C345.4,562.4,341.3,562.2,337.1,561.9z M655.4,700.9c-0.8-9.4-2.7-17.3-11-21.9
		c-6.8-3.8-16.7-3.2-20.5,1.2c-4.3,5-3.5,15.7,2.1,21.6c6.1,6.5,13.6,11.1,21.6,14.8c3.1,1.4,5.1,0.2,5.7-3.2
		C654.1,708.9,654.8,704.5,655.4,700.9z M493.5,421.6c3.3-0.2,6-1.4,8.4-3.8c8.7-8.5,9.6-20.1,12.6-30.9c0.7-2.5-1.4-3.2-3.5-2.5
		c-8.4,3-17.3,5-25.1,9.5c-6.6,3.8-9,8.6-7.4,14.7C480.2,415.1,487.6,421.4,493.5,421.6z M675.3,433.3c0.2-5.9-0.8-7-5.5-6.3
		c-6.9,1-13.6,3.1-19.7,6.6c-6.3,3.6-9.2,9.5-9.4,16.5c-0.1,5,1.9,9.1,6.5,11.5c3.6,2,7.4,2.3,10.8-0.2
		C668.2,454.3,673.9,444.5,675.3,433.3z M452.4,400c4.5,0,8.7-0.6,11-5.3c2.3-4.7-0.2-8.4-2.8-11.9c-4.1-5.5-10-7.4-16.6-7.7
		c-4.3-0.2-8.5,0.1-12.9-0.7c-3.2-0.6-6.6,0.8-8.1,4.4c-1.4,3.4,0.7,5.4,3,7.1c5.1,3.7,10.3,7.4,15.6,10.9
		C444.8,399.1,448.5,400.1,452.4,400z M421.5,484c-3.2,0-5.2-0.1-7.2,0c-2.3,0.1-4.9-0.4-6.1,2.3c-1,2.4,0.2,4.6,1.6,6.5
		c6.9,9.9,24.2,16.2,36.1,13.3c2.3-0.6,3.4-1.6,3.4-4.1c-0.1-8.7-5.6-15.4-14.1-16.8C430.2,484.4,425.3,483.7,421.5,484z M371.5,610
		c-6.8,0-8.2,0.8-11.8,6.4c-4.2,6.6-7.8,13.5-11.2,20.5c-1,2-1.7,4,0.3,5.9c2.1,2,4.4,2.1,6.8,0.7c6.8-3.9,13.5-7.9,19.3-13.2
		c3.6-3.3,5.6-7.4,5.3-12.4C379.7,611.5,377.9,609.9,371.5,610z M431.5,678c-5.5,0.1-10.2,2.2-12.9,7c-3.4,6-6.3,12.4-9.3,18.7
		c-1,2-0.4,4,1.1,5.5c1.8,1.7,4.1,2.4,6.4,1c5.8-3.5,11.7-7,17.2-10.9c3.7-2.6,5.4-6.7,6.2-11C441.4,680.6,439.2,678.1,431.5,678z
		 M682.5,645.6c-8.9-2.9-16.8-5.4-24.7-8c-2.9-1-5.9-0.9-8.9-0.5c-5.8,0.8-9.5,6.1-8.7,11.9c0.8,5.4,6.1,9.9,11.4,8.8
		C662.2,655.5,672.2,651.4,682.5,645.6z M629,419.1c-0.4-2,1.6-5.5-0.4-6.5c-2.4-1.2-5.2,1.4-7.5,2.9c-3.3,2-6.2,4.4-8.6,7.5
		c-3.5,4.5-5.3,9.6-4.9,15.3c0.4,7,5.4,9.6,11.3,5.8c4.4-2.8,7.4-6.6,8.6-11.7C628.6,428.2,629.1,423.9,629,419.1z M632.7,490.8
		c6.8-0.6,13.4-2,19.8-4.7c2.2-0.9,3.8-2.1,3.5-4.7c-0.3-2.4-1.7-3.8-4.1-4.4c-4.5-1.2-8.9-2.6-13.4-3.7c-4.1-1.1-8.2-0.9-12.1,0.9
		c-6.4,3-7.3,9.3-1.9,14C626.8,490.2,629.5,491.1,632.7,490.8z"/>
	<path class="st1" d="M781.4,813.5c16.6-22,31.1-45.2,42.3-70.4c24.2-54.3,34.1-111.1,28.6-170.4C839,426,736.7,306.4,594.1,270.5
		C417.2,225.9,233.3,331,183.7,506.6C152.8,615.8,172,717.1,238.9,809c0.9,1.3,2.4,2.3,2.3,4.5c-2.2-0.1-3.1-1.9-4.2-3.1
		C187,757.2,153.7,695,140.3,623.2C118.6,506.7,144.1,401.1,219,309c60.3-74.1,138.7-118.8,233.1-134c193-31,379,89.6,426.2,279.7
		c33.3,134.1,1.2,253.7-92.2,356.2c-1.1,1.2-2.4,2.3-3.6,3.4C782.1,814,781.8,813.7,781.4,813.5z"/>
	<path class="st2" d="M616.2,656c-3,5.8-7.8,10.3-11.9,15.2c-21.3,25.6-33,55.1-36.2,88.2c-1.6,16.6-2.2,33.2-0.8,49.9
		c0.1,1.7,0.5,3.3,0.6,4.9c0.5,4.9,3.3,6.9,8.1,6.8c16.5-0.4,33,0.1,49.4,2c8.4,1,16.9,1.9,25.4,2.2c7.7,0.3,9.9,3.5,9,11
		c-0.3,2.5-0.5,5-1,7.4c-1.3,6.7-2.6,7.5-9.1,5.8c-11.4-3-23-5.5-34.6-7.6c-17.1-3-34.3-4.8-51.6-5.7c-56.7-3-112.8,0.9-168,14.7
		c-5.8,1.5-11.5,4.2-18.4,2.3c1.4-1.6,3-1.8,4.5-2.3c31.1-10.1,62.6-18,95.1-22.2c5.7-0.7,8.8-3.4,10.6-8.8
		c4.8-14.2,6.3-28.9,6.5-43.8c0.4-34.2-6.4-66.8-20.6-97.8c-13.7-29.9-35.5-52.4-64.4-68.1c-6.1-3.3-12.5-6.2-18.8-9.3
		c-2.4-1.2-5.3-2.1-3.9-5.7c1.3-3.5,4-2.6,6.7-1.8c21.2,6.7,40.9,16.9,60,28c4.2,2.4,8.5,4.7,12.7,7c2.9,1.6,6,3,9.3,3.6
		c7.5,1.3,11.6-1.9,11.6-9.5c0-12-1.8-23.9-3.5-35.7c-3.7-25.3-11.7-49.5-17.9-74.1c-6.5-26.1-7.2-52.7-3.6-79.4
		c0.2-1.6,0.1-3.9,2.2-3.9c1.7,0,1.4,2.3,1.7,3.7c7.4,27.9,12.5,56.5,23.8,83.4c5,11.9,11.3,23,19.7,32.8c7.5,8.8,19.5,9.8,28,2.2
		c24.2-21.6,46-45.3,65.4-71.3c1.8-2.4,3.4-5,5-7.5c1.3-2.1,2.8-3.9,5.6-2.6c3,1.4,2.1,3.7,1.3,6c-7.7,21.2-17.6,41.3-29.6,60.4
		c-12.6,20-25.1,40.1-35.6,61.3c-11.4,22.9-13.8,46.4-2.3,70.1c5.7,11.8,16.7,15.4,28.4,9.7c5.1-2.5,9.7-5.8,14.4-9
		C597.7,662.8,606.1,657.4,616.2,656L616.2,656z"/>
	<path class="st2" d="M559,494.5c-0.6,11.4-4.7,20.4-13.1,27.1c-12,9.5-29.4,5.4-35.5-8.7c-4.3-9.9-4.2-20.2-1.1-30.2
		c3.6-11.6,15-16.6,26-16.1c12,0.5,20.5,8.9,23,21.3C558.6,490.3,558.8,492.8,559,494.5z"/>
	<path class="st2" d="M462.5,573.5c0.1,10.8-8,19.3-18.6,19.4c-14,0.1-26.5-11.9-26.7-25.7c-0.2-10.3,8.9-18.7,20.4-19
		C450.9,547.9,462.4,559.5,462.5,573.5z"/>
	<path class="st2" d="M577.4,645c-9.7,0-15.1-4.4-17.2-13.9c-3.1-13.8,3.7-26.4,16.6-30.6c12.9-4.2,22.5,1.7,24.6,15.1
		C603.8,630.5,591.9,644.9,577.4,645z"/>
	<path class="st2" d="M337.1,561.9c4.1,0.3,8.3,0.5,12.4,1.1c9.8,1.4,16.3,7.2,20.2,15.8c2.7,5.9-0.9,12.4-7.3,13.9
		c-6.9,1.7-13.5,1-19.7-2.8c-9-5.4-17.4-11.6-24.9-18.9c-1.3-1.3-3.9-2.3-2.9-4.6c1-2.3,3.5-3.1,5.8-3.2
		C326.2,562.8,331.6,561.7,337.1,561.9z"/>
	<path class="st2" d="M655.4,700.9c-0.6,3.6-1.3,8.1-2,12.5c-0.6,3.4-2.6,4.7-5.7,3.2c-8.1-3.7-15.5-8.3-21.6-14.8
		c-5.6-6-6.4-16.6-2.1-21.6c3.7-4.4,13.6-5,20.5-1.2C652.7,683.6,654.6,691.5,655.4,700.9z"/>
	<path class="st2" d="M493.5,421.6c-5.9-0.1-13.3-6.5-15-12.9c-1.6-6.1,0.8-10.9,7.4-14.7c7.9-4.5,16.7-6.4,25.1-9.5
		c2.1-0.8,4.2,0,3.5,2.5c-3,10.8-3.9,22.4-12.6,30.9C499.5,420.2,496.8,421.4,493.5,421.6z"/>
	<path class="st2" d="M675.3,433.3c-1.3,11.1-7.1,21-17.3,28.2c-3.5,2.4-7.2,2.1-10.8,0.2c-4.5-2.5-6.6-6.6-6.5-11.5
		c0.2-7.1,3.1-12.9,9.4-16.5c6.1-3.5,12.8-5.6,19.7-6.6C674.5,426.4,675.5,427.5,675.3,433.3z"/>
	<path class="st2" d="M452.4,400c-4,0.1-7.6-1-10.9-3.1c-5.3-3.5-10.4-7.1-15.6-10.9c-2.3-1.7-4.4-3.8-3-7.1
		c1.5-3.7,4.9-5.1,8.1-4.4c4.3,0.8,8.6,0.5,12.9,0.7c6.6,0.3,12.5,2.3,16.6,7.7c2.6,3.5,5.1,7.2,2.8,11.9
		C461.2,399.5,456.9,400,452.4,400z"/>
	<path class="st2" d="M421.5,484c3.8-0.3,8.8,0.5,13.7,1.3c8.5,1.4,14,8.1,14.1,16.8c0,2.5-1.1,3.5-3.4,4.1
		c-11.9,2.9-29.2-3.4-36.1-13.3c-1.3-1.9-2.6-4.1-1.6-6.5c1.1-2.8,3.8-2.2,6.1-2.3C416.3,483.9,418.3,484,421.5,484z"/>
	<path class="st2" d="M371.5,610c6.3,0,8.1,1.6,8.6,8c0.3,5-1.6,9-5.3,12.4c-5.8,5.3-12.5,9.3-19.3,13.2c-2.4,1.4-4.7,1.3-6.8-0.7
		c-2-1.9-1.2-3.9-0.3-5.9c3.4-7,7-13.9,11.2-20.5C363.3,610.7,364.7,610,371.5,610z"/>
	<path class="st2" d="M431.5,678c7.8,0.1,10,2.6,8.7,10.2c-0.7,4.4-2.5,8.5-6.2,11c-5.6,3.9-11.4,7.3-17.2,10.9
		c-2.3,1.4-4.5,0.8-6.4-1c-1.6-1.5-2.1-3.4-1.1-5.5c3-6.3,5.9-12.6,9.3-18.7C421.3,680.2,425.9,678,431.5,678z"/>
	<path class="st2" d="M682.5,645.6c-10.4,5.8-20.3,9.9-30.8,12.1c-5.3,1.1-10.6-3.4-11.4-8.8c-0.8-5.8,2.9-11.1,8.7-11.9
		c3-0.4,5.9-0.4,8.9,0.5C665.7,640.2,673.6,642.7,682.5,645.6z"/>
	<path class="st2" d="M629,419.1c0.1,4.8-0.4,9-1.5,13.3c-1.3,5.1-4.2,8.9-8.6,11.7c-5.9,3.7-10.9,1.2-11.3-5.8
		c-0.4-5.7,1.4-10.8,4.9-15.3c2.4-3.1,5.3-5.5,8.6-7.5c2.4-1.4,5.1-4.1,7.5-2.9C630.6,413.6,628.6,417.2,629,419.1z"/>
	<path class="st2" d="M632.7,490.8c-3.1,0.3-5.9-0.6-8.3-2.7c-5.4-4.7-4.5-10.9,1.9-14c3.9-1.8,8-2,12.1-0.9
		c4.5,1.2,8.9,2.6,13.4,3.7c2.4,0.6,3.8,2,4.1,4.4c0.3,2.6-1.3,3.8-3.5,4.7C646.1,488.8,639.5,490.2,632.7,490.8z"/>
	<path class="st1" d="M242.8,814.2c1.1,0.9,1.7,1.9,1.4,3.4c-1.3-0.5-1.5-1.6-2.1-2.5C242.4,814.9,242.6,814.5,242.8,814.2z"/>
	<path class="st1" d="M781.5,815.2c-0.6,1.2-1.4,2.2-3.5,1.3c1-0.8,1.9-1.5,2.7-2.2C780.9,814.6,781.2,814.9,781.5,815.2z"/>
	<path class="st2" d="M616.3,656c0.1-0.2,0.2-0.3,0.4-0.5c0,0.1,0,0.3,0,0.3C616.5,655.9,616.3,655.9,616.3,656
		C616.2,656,616.3,656,616.3,656z"/>
	<path class="st1" d="M242.1,815.2c-0.4-0.3-1.3-0.5-0.7-1.2c0.5-0.7,1,0,1.4,0.3C242.6,814.5,242.4,814.9,242.1,815.2z"/>
	<path class="st1" d="M782.5,814.2c-0.3,0.3-0.7,0.7-1,1c-0.3-0.3-0.5-0.6-0.8-0.9c0.2-0.3,0.5-0.5,0.7-0.8
		C781.8,813.7,782.1,814,782.5,814.2z"/>
</g>
</svg>
