<svg id="Capa_1" enable-background="new 0 0 512 512" height="512" viewBox="0 0 512 512" width="512" xmlns="http://www.w3.org/2000/svg" xmlns:xlink="http://www.w3.org/1999/xlink"><linearGradient id="SVGID_1_" gradientUnits="userSpaceOnUse" x1="256" x2="256" y1="512" y2="0"><stop offset="0" stop-color="#addcff"/><stop offset=".5028" stop-color="#eaf6ff"/><stop offset="1" stop-color="#eaf6ff"/></linearGradient><linearGradient id="SVGID_2_" gradientUnits="userSpaceOnUse" x1="256" x2="256" y1="389" y2="123"><stop offset="0" stop-color="#00c0ff"/><stop offset="1" stop-color="#5558ff"/></linearGradient><g><circle cx="256" cy="256" fill="url(#SVGID_1_)" r="256"/></g><g><g><path d="m256 229.4c-4.892 0-8.882 3.975-8.882 8.867s3.99 8.867 8.882 8.867 8.882-3.974 8.882-8.867c0-4.892-3.99-8.867-8.882-8.867zm-71.059 0c-4.892 0-8.882 3.975-8.882 8.867s3.99 8.867 8.882 8.867 8.882-3.974 8.882-8.867c.001-4.892-3.99-8.867-8.882-8.867zm142.118 0c-4.892 0-8.882 3.975-8.882 8.867s3.99 8.867 8.882 8.867 8.882-3.974 8.882-8.867c0-4.892-3.99-8.867-8.882-8.867zm-71.059-106.4c-83.255 0-151 51.711-151 115.267 0 39.848 26.075 75.938 69.983 97.213.711 3.161 1.076 6.2 1.076 9.187 0 10.244-3.608 19.985-10.426 28.167-1.978 2.355-2.585 5.55-1.613 8.459.972 2.91 3.366 5.109 6.35 5.828 5.239 1.264 10.01 1.879 14.573 1.879 24.392 0 46.164-14.252 56.226-36.116 4.875.407 9.819.649 14.833.649 83.255 0 151-51.71 151-115.267-.002-63.555-67.747-115.266-151.002-115.266zm-71.059 141.867c-14.694 0-26.647-11.932-26.647-26.6s11.953-26.6 26.647-26.6 26.647 11.932 26.647 26.6-11.953 26.6-26.647 26.6zm71.059 0c-14.694 0-26.647-11.932-26.647-26.6s11.953-26.6 26.647-26.6 26.647 11.932 26.647 26.6-11.953 26.6-26.647 26.6zm71.059 0c-14.694 0-26.647-11.932-26.647-26.6s11.953-26.6 26.647-26.6 26.647 11.932 26.647 26.6-11.953 26.6-26.647 26.6z" fill="url(#SVGID_2_)"/></g></g></svg>